<?xml version="1.0" encoding="utf-8"?>
<!-- Generator: Adobe Illustrator 26.2.1, SVG Export Plug-In . SVG Version: 6.00 Build 0)  -->
<svg version="1.1" id="Layer_1" xmlns="http://www.w3.org/2000/svg" xmlns:xlink="http://www.w3.org/1999/xlink" x="0px" y="0px"
	 viewBox="0 0 1500 2197" style="enable-background:new 0 0 1500 2197;" xml:space="preserve">
<style type="text/css">
	.st0{fill-rule:evenodd;clip-rule:evenodd;fill:#FFFFFF;}
</style>
<path class="st0" d="M1092.75,1327.05c0,0,71.98-72.21,106.88-147.45c33.17-71.51,15.88-172.5,44.23-213.8
	c59.52-86.72,82.31-162.19,88.45-224.86c6.14-62.67,14.45-150.78-33.17-250.66c-45.59-95.62-114.25-150.98-140.05-180.63
	c-24.52-28.18-59.12-62.67-73.71-106.9c-14.59-44.23-13.59-68.73-22.11-95.84c-4.46-14.19-14.74-36.86-14.74-36.86
	s-7.62,33.72-7.37,44.23c0.31,12.75-1.23,63.28,36.85,132.7c38.08,69.42,158.48,233.46,184.28,287.53
	c25.8,54.06,41.98,104.88,22.11,162.19c-28.86,83.23-55.75,100.05-73.71,151.14c-33.32,94.77-27.87,236.69-81.08,309.64
	c-73.33,100.54-73.7,107.32-143.73,117.96c-66.57,10.11-466.73,4.93-523.34-7.37c-59.54-12.93-155.86-181.78-151.11-291.21
	c3.38-77.81,23.76-82.83-55.28-210.12c-68.13-109.71-59.15-160.08-40.54-235.92c18.73-76.34,97.67-159.74,147.42-217.49
	c49.75-57.75,97.67-141.92,92.14-173.25c-5.67-32.16-22.11-33.18-22.11-33.18s11.06,26.42,3.69,51.61
	c-7.37,25.19-39.31,83.55-95.82,132.7s-152.33,172.64-162.16,213.8c-9.83,41.16-49.14,188.61,25.8,328.08
	c42.38,82.94,49.75,82.94,47.91,129.02c-1.84,46.08-10.44,118.57,33.17,206.43s103.19,169.57,103.19,169.57
	s-31.98,10.34-121.62,25.8c-89.07,15.36-199.02,22.12-199.02,22.12s154.79,30.72,224.82,36.86c70.02,6.14,173.22,29.49,173.22,29.49
	s33.17,129.02,95.82,269.1c62.65,140.08,173.22,405.49,173.22,405.49s57.13-164.04,140.05-350.19s158.48-328.08,158.48-328.08
	s99.51-14.74,246.93-33.18c147.42-18.43,151.11-18.43,151.11-18.43L1092.75,1327.05z M606.27,1489.24
	c-31.79-29.49-51.6-66.35-51.6-66.35s26.26,9.68,62.65,33.18c36.39,23.5,70.02,77.41,70.02,77.41S638.05,1518.73,606.27,1489.24z
	 M897.42,1470.81c-20.52,19.1-73.71,44.23-73.71,44.23s3.38-27.95,47.91-66.35c48.47-41.79,81.08-51.61,81.08-51.61
	S941.65,1429.65,897.42,1470.81z"/>
</svg>
